<svg width="24" height="24" viewBox="0 0 24 24" fill="none" xmlns="http://www.w3.org/2000/svg">
<path d="M18.3038 12.8089L17.5706 12.1289L18.3038 12.8089ZM11.2327 5.73783L11.9127 6.47103L11.2327 5.73783ZM21.6611 4.27232L22.6527 4.402L21.6611 4.27232ZM19.7693 2.38046L19.899 3.37202L19.7693 2.38046ZM6.49459 12.6506L7.39249 13.0908L6.49459 12.6506ZM11.391 17.547L10.9508 16.6491L11.391 17.547ZM5.20723 17.8674C5.59775 17.4769 5.59775 16.8437 5.20723 16.4532C4.8167 16.0627 4.18354 16.0627 3.79302 16.4532L5.20723 17.8674ZM0.964588 19.2816C0.574065 19.6722 0.574064 20.3053 0.964588 20.6958C1.35511 21.0864 1.98828 21.0864 2.3788 20.6958L0.964588 19.2816ZM7.32855 19.9887C7.71907 19.5982 7.71907 18.965 7.32855 18.5745C6.93802 18.184 6.30486 18.184 5.91433 18.5745L7.32855 19.9887ZM4.50012 19.9887C4.1096 20.3793 4.1096 21.0124 4.50012 21.4029C4.89065 21.7935 5.52381 21.7935 5.91434 21.4029L4.50012 19.9887ZM10.5963 21.082L11.5863 20.9406L11.5863 20.9406L10.5963 21.082ZM15.7582 17.6172L16.7482 17.4758L15.7582 17.6172ZM2.95956 13.4453L3.10098 12.4553L3.10098 12.4553L2.95956 13.4453ZM6.42438 8.2834L6.28296 9.27335L6.28296 9.27335L6.42438 8.2834ZM9.92724 16.4532L7.58839 14.1143L6.17417 15.5286L8.51303 17.8674L9.92724 16.4532ZM17.5706 12.1289C15.7108 14.1341 12.6729 15.8048 10.9508 16.6491L11.8312 18.4449C13.574 17.5905 16.9065 15.786 19.037 13.4889L17.5706 12.1289ZM7.39249 13.0908C8.23676 11.3687 9.90745 8.33084 11.9127 6.47103L10.5527 5.00464C8.25557 7.13512 6.45109 10.4676 5.59669 12.2104L7.39249 13.0908ZM20.6696 4.14264C20.3665 6.46004 19.5658 9.97761 17.5706 12.1289L19.037 13.4889C21.4896 10.8444 22.3434 6.76695 22.6527 4.402L20.6696 4.14264ZM11.9127 6.47103C14.064 4.4758 17.5815 3.6751 19.899 3.37202L19.6396 1.38891C17.2746 1.69821 13.1972 2.55195 10.5527 5.00464L11.9127 6.47103ZM22.6527 4.402C22.8851 2.62531 21.4163 1.15654 19.6396 1.38891L19.899 3.37202C20.3731 3.31001 20.7316 3.6685 20.6696 4.14264L22.6527 4.402ZM7.58839 14.1143C7.29598 13.8219 7.23415 13.4138 7.39249 13.0908L5.59669 12.2104C5.03851 13.349 5.31561 14.67 6.17417 15.5286L7.58839 14.1143ZM8.51303 17.8674C9.37159 18.726 10.6926 19.0031 11.8312 18.4449L10.9508 16.6491C10.6278 16.8074 10.2197 16.7456 9.92724 16.4532L8.51303 17.8674ZM3.79302 16.4532L0.964588 19.2816L2.3788 20.6958L5.20723 17.8674L3.79302 16.4532ZM5.91433 18.5745L4.50012 19.9887L5.91434 21.4029L7.32855 19.9887L5.91433 18.5745ZM13.0005 6.79845C11.8289 7.97003 11.8289 9.86952 13.0005 11.0411L14.4147 9.62688C14.0242 9.23635 14.0242 8.60319 14.4147 8.21267L13.0005 6.79845ZM13.0005 11.0411C14.1721 12.2127 16.0716 12.2127 17.2431 11.0411L15.8289 9.62688C15.4384 10.0174 14.8052 10.0174 14.4147 9.62688L13.0005 11.0411ZM17.2431 11.0411C18.4147 9.86952 18.4147 7.97003 17.2431 6.79845L15.8289 8.21267C16.2194 8.60319 16.2194 9.23636 15.8289 9.62688L17.2431 11.0411ZM17.2431 6.79845C16.0716 5.62688 14.1721 5.62688 13.0005 6.79845L14.4147 8.21267C14.8052 7.82214 15.4384 7.82214 15.8289 8.21267L17.2431 6.79845ZM14.7683 17.7586L11.5863 20.9406L13.0005 22.3548L16.1825 19.1728L14.7683 17.7586ZM11.5863 20.9406L11.162 17.9707L9.18212 18.2536L9.60638 21.2234L11.5863 20.9406ZM14.4854 15.7787L14.7683 17.7586L16.7482 17.4758L16.4653 15.4959L14.4854 15.7787ZM11.5863 20.9406L9.60638 21.2234C9.83945 22.855 11.8351 23.5202 13.0005 22.3548L11.5863 20.9406ZM16.1825 19.1728C16.6276 18.7277 16.8372 18.099 16.7482 17.4758L14.7683 17.7586L14.7683 17.7586L16.1825 19.1728ZM4.86874 7.85913L1.68676 11.0411L3.10098 12.4553L6.28296 9.27335L4.86874 7.85913ZM2.81813 14.4352L5.78798 14.8595L6.07082 12.8796L3.10098 12.4553L2.81813 14.4352ZM8.5457 7.57629L6.5658 7.29345L6.28296 9.27335L8.26285 9.55619L8.5457 7.57629ZM1.68676 11.0411C0.521385 12.2065 1.18661 14.2022 2.81813 14.4352L3.10098 12.4553L3.10098 12.4553L1.68676 11.0411ZM6.28296 9.27335L6.5658 7.29345C5.94261 7.20442 5.31388 7.414 4.86874 7.85913L6.28296 9.27335Z" fill="white"/>
</svg>
