<svg width="101" height="101" viewBox="0 0 101 101" fill="none" xmlns="http://www.w3.org/2000/svg">
<circle cx="50.2802" cy="50.2815" r="50" fill="#23A26D" fill-opacity="0.12"/>
<path d="M49.3873 26.472C36.2682 26.472 25.5778 37.1624 25.5778 50.2815C25.5778 63.4005 36.2682 74.091 49.3873 74.091C62.5063 74.091 73.1968 63.4005 73.1968 50.2815C73.1968 37.1624 62.5063 26.472 49.3873 26.472ZM60.7682 44.8053L47.2682 58.3053C46.9349 58.6386 46.4825 58.8291 46.0063 58.8291C45.5301 58.8291 45.0778 58.6386 44.7444 58.3053L38.0063 51.5672C37.3159 50.8767 37.3159 49.7339 38.0063 49.0434C38.6968 48.3529 39.8397 48.3529 40.5301 49.0434L46.0063 54.5196L58.2444 42.2815C58.9349 41.591 60.0778 41.591 60.7682 42.2815C61.4587 42.972 61.4587 44.091 60.7682 44.8053Z" fill="#23A26D"/>
</svg>
