<svg width="369" height="235" viewBox="0 0 369 235" fill="none" xmlns="http://www.w3.org/2000/svg">
<g clip-path="url(#clip0_301_406)">
<path d="M422 143.7C389.396 145.96 355.804 145.96 323.2 150.48C290.596 155 257.004 164.039 224.4 159.519C191.796 155 158.204 136.921 125.6 138.051C92.996 139.181 59.404 159.519 26.8 161.779C-5.80399 164.039 -39.396 148.22 -72 147.09" stroke="#B5B6C4"/>
<path d="M-72.0898 120.908C-39.4858 131.307 -5.89384 131.307 26.7102 152.104C59.3142 172.902 92.9062 214.497 125.51 193.699C158.114 172.902 191.706 89.7121 224.31 94.9115C256.914 100.111 290.506 193.699 323.11 204.098C355.714 214.497 389.306 141.706 421.91 136.506" stroke="#B5B6C4"/>
<path d="M451.91 187.397C419.306 172.293 385.714 172.293 353.11 142.086C320.506 111.878 286.914 51.4624 254.31 81.6701C221.706 111.878 188.114 232.709 155.51 225.157C122.906 217.605 89.3142 81.6701 56.7102 66.5662C24.1062 51.4624 -9.48583 157.189 -42.0898 164.741" stroke="#E6E8EC" stroke-width="4"/>
<path d="M-87.4019 168.793C-54.3457 173.384 -20.9772 164.22 12.7482 182.297C46.4736 200.374 82.5188 245.155 113.568 209.287C144.616 173.42 172.631 56.3645 205.353 54.2126C238.075 52.0606 277.466 164.273 310.522 168.864C343.578 173.455 372.263 69.8862 404.315 54.2479" stroke="#EFF1F3" stroke-width="5"/>
</g>
<defs>
<clipPath id="clip0_301_406">
<rect width="369" height="235" fill="white"/>
</clipPath>
</defs>
</svg>
