<svg width="350" height="120" viewBox="0 0 350 120" fill="none" xmlns="http://www.w3.org/2000/svg">
<path d="M349.25 60C349.25 67.965 344.543 75.6648 335.775 82.7721C327.014 89.8743 314.29 96.3034 298.5 101.717C266.929 112.541 223.265 119.25 175 119.25C126.735 119.25 83.0711 112.541 51.4996 101.717C35.7101 96.3034 22.9862 89.8743 14.2246 82.7721C5.45684 75.6648 0.75 67.965 0.75 60C0.75 52.035 5.45684 44.3352 14.2246 37.2279C22.9862 30.1257 35.7101 23.6966 51.4996 18.2831C83.0711 7.45854 126.735 0.75 175 0.75C223.265 0.75 266.929 7.45854 298.5 18.2831C314.29 23.6966 327.014 30.1257 335.775 37.2279C344.543 44.3352 349.25 52.035 349.25 60Z" stroke="url(#paint0_angular_4_1568)" stroke-width="1.5"/>
<defs>
<radialGradient id="paint0_angular_4_1568" cx="0" cy="0" r="1" gradientUnits="userSpaceOnUse" gradientTransform="translate(174.496 60.3509) rotate(-90) scale(375.789 459.428)">
<stop offset="0.499903" stop-color="#EAEAEA"/>
<stop offset="0.999914" stop-color="#E4AFB9" stop-opacity="0"/>
</radialGradient>
</defs>
</svg>
