<svg width="54" height="54" viewBox="0 0 54 54" fill="none" xmlns="http://www.w3.org/2000/svg">
<path d="M20.4401 21.4485L27.2628 25.0394L34.0856 21.4485" stroke="white" stroke-width="1.64778" stroke-linecap="round" stroke-linejoin="round"/>
<path d="M6.1539 13.9292L14.2427 18.1865" stroke="white" stroke-width="1.64778" stroke-linecap="round" stroke-linejoin="round"/>
<path d="M48.3713 13.9292L40.2824 18.1865" stroke="white" stroke-width="1.64778" stroke-linecap="round" stroke-linejoin="round"/>
<path d="M27.2626 2.66093V12.2473" stroke="white" stroke-width="1.64778" stroke-linecap="round" stroke-linejoin="round"/>
<path d="M27.2626 25.0796V33.2978" stroke="white" stroke-width="1.64778" stroke-linecap="round" stroke-linejoin="round"/>
<path d="M27.2626 41.9386V51.347" stroke="white" stroke-width="1.64778" stroke-linecap="round" stroke-linejoin="round"/>
<path d="M6.1539 31.5853V40.4483L14.0803 44.6201" stroke="white" stroke-width="1.64778" stroke-linecap="round" stroke-linejoin="round"/>
<path d="M14.243 36.1597L6.15414 40.417" stroke="white" stroke-width="1.64778" stroke-linecap="round" stroke-linejoin="round"/>
<path d="M40.2822 36.1597L48.371 40.417" stroke="white" stroke-width="1.64778" stroke-linecap="round" stroke-linejoin="round"/>
<path d="M14.0803 9.61237L6.1539 13.7842V23.1966" stroke="white" stroke-width="1.64778" stroke-linecap="round" stroke-linejoin="round"/>
<path d="M19.9362 6.53048L27.2627 2.67441L34.5893 6.53048" stroke="white" stroke-width="1.64778" stroke-linecap="round" stroke-linejoin="round"/>
<path d="M40.4445 9.61237L48.3709 13.7842V23.1966" stroke="white" stroke-width="1.64778" stroke-linecap="round" stroke-linejoin="round"/>
<path d="M48.3709 31.5853V40.4483L40.4445 44.6201" stroke="white" stroke-width="1.64778" stroke-linecap="round" stroke-linejoin="round"/>
<path d="M19.9362 47.4637L27.2627 51.3197L34.5893 47.4637" stroke="white" stroke-width="1.64778" stroke-linecap="round" stroke-linejoin="round"/>
</svg>
